<svg width="75" height="75" viewBox="0 0 75 75" fill="none" xmlns="http://www.w3.org/2000/svg">
<g clip-path="url(#clip0_1_264)">
<path d="M24.4219 0.0468772C24.2285 0.0820334 24.0293 0.11719 23.8594 0.234377C23.1738 0.697268 23.0215 1.65821 23.4844 2.34375L26.7188 7.17188C21.7207 9.82031 17.9941 14.2207 16.7812 19.5H58.2188C57.0059 14.2207 53.2793 9.82031 48.2812 7.17188L51.5156 2.34375C51.9785 1.65821 51.8262 0.697268 51.1406 0.234377C50.4492 -0.228514 49.4941 -0.0292948 49.0312 0.656252L45.4688 5.90625C42.9961 5.00391 40.3125 4.5 37.5 4.5C34.6875 4.5 32.0039 5.00391 29.5312 5.90625L25.9688 0.656252C25.623 0.140627 24.9961 -0.064451 24.4219 0.0468772ZM29.25 12C30.4922 12 31.5 13.0078 31.5 14.25C31.5 15.498 30.4922 16.5 29.25 16.5C28.002 16.5 27 15.498 27 14.25C27 13.0078 28.002 12 29.25 12ZM45.75 12C46.998 12 48 13.0078 48 14.25C48 15.498 46.998 16.5 45.75 16.5C44.5078 16.5 43.5 15.498 43.5 14.25C43.5 13.0078 44.5078 12 45.75 12ZM12 22.5C9.51562 22.5 7.5 24.5156 7.5 27V48C7.5 50.4844 9.51562 52.5 12 52.5C12.5273 52.5 13.0312 52.3887 13.5 52.2188V22.7812C13.0312 22.6113 12.5273 22.5 12 22.5ZM16.5 22.5V55.5C16.5 57.9785 18.5215 60 21 60H54C56.4785 60 58.5 57.9785 58.5 55.5V22.5H16.5ZM63 22.5C62.4727 22.5 61.9688 22.6113 61.5 22.7812V52.2188C61.9688 52.3828 62.4727 52.5 63 52.5C65.4844 52.5 67.5 50.4844 67.5 48V27C67.5 24.5156 65.4844 22.5 63 22.5ZM22.5 63V69C22.5 72.3105 25.1895 75 28.5 75C31.8105 75 34.5 72.3105 34.5 69V63H22.5ZM40.5 63V69C40.5 72.3105 43.1895 75 46.5 75C49.8105 75 52.5 72.3105 52.5 69V63H40.5Z" fill="#4BAA5B"/>
</g>
<defs>
<clipPath id="clip0_1_264">
<rect width="75" height="75" fill="white"/>
</clipPath>
</defs>
</svg>
