<svg width="75" height="75" viewBox="0 0 75 75" fill="none" xmlns="http://www.w3.org/2000/svg">
<path d="M66.7911 52.125C65.1739 55.7168 64.3946 57.3223 62.3145 60.4922C59.4024 64.9219 55.295 70.4531 50.2208 70.4883C45.7032 70.5293 44.5372 67.541 38.4024 67.5938C32.2735 67.623 30.9962 70.5469 26.4727 70.5C21.3927 70.4531 17.5079 65.4727 14.5958 61.0488C6.45126 48.6445 5.58994 34.1016 10.6231 26.3672C14.1856 20.8828 19.8165 17.6602 25.1075 17.6602C30.4981 17.6602 33.8849 20.6191 38.338 20.6191C42.6622 20.6191 45.2931 17.6543 51.5274 17.6543C56.2384 17.6543 61.2188 20.2207 64.7813 24.6504C53.1329 31.0371 55.0255 47.6719 66.7911 52.125ZM46.7931 12.7031C49.0606 9.79102 50.7833 5.68359 50.1563 1.5C46.4591 1.75195 42.1349 4.11328 39.6095 7.17188C37.3185 9.96094 35.42 14.0977 36.1583 18.0996C40.1954 18.2285 44.3731 15.8203 46.7931 12.7031Z" fill="black"/>
</svg>
