<svg width="75" height="75" viewBox="0 0 75 75" fill="none" xmlns="http://www.w3.org/2000/svg">
<path d="M70.7777 22.0532C70.7772 20.7925 70.5082 19.6785 69.9643 18.7224C69.43 17.7822 68.6298 16.9942 67.5565 16.3711C58.6967 11.2502 49.8283 6.14501 40.9714 1.01889C38.5836 -0.36293 36.2684 -0.312553 33.8984 1.08911C30.3719 3.17385 12.7161 13.3136 7.45492 16.3683C5.28821 17.6256 4.23389 19.5498 4.23337 22.0509C4.22998 32.3493 4.23337 42.6475 4.22998 52.9462C4.2305 54.1792 4.48803 55.2715 5.00803 56.2133C5.54261 57.1819 6.35399 57.9916 7.45205 58.6288C12.7135 61.6834 30.3716 71.8224 33.8973 73.9076C36.2684 75.3101 38.5836 75.3602 40.9721 73.9779C49.8293 68.8515 58.6982 63.7465 67.5593 58.6256C68.6574 57.9887 69.4688 57.1785 70.0033 56.2107C70.5226 55.2689 70.7806 54.1766 70.7811 52.9433C70.7811 52.9433 70.7811 32.3519 70.7777 22.0532Z" fill="#5C8DBC"/>
<path d="M37.6074 37.3982L5.00806 56.2133C5.54264 57.182 6.35402 57.9916 7.45208 58.6288C12.7135 61.6835 30.3717 71.8224 33.8974 73.9077C36.2685 75.3101 38.5836 75.3602 40.9722 73.9779C49.8294 68.8515 58.6983 63.7465 67.5594 58.6256C68.6574 57.9888 69.4688 57.1786 70.0034 56.2107L37.6074 37.3982Z" fill="#1A4674"/>
<path d="M27.9519 42.9714C29.8489 46.291 33.4149 48.53 37.5056 48.53C41.6216 48.53 45.208 46.2626 47.0953 42.9074L37.6075 37.3982L27.9519 42.9714Z" fill="#1A4674"/>
<path d="M70.7778 22.0532C70.7773 20.7925 70.5083 19.6785 69.9643 18.7224L37.6074 37.3982L70.0034 56.2107C70.5226 55.2689 70.7807 54.1766 70.7812 52.9433C70.7812 52.9433 70.7812 32.3519 70.7778 22.0532Z" fill="#1B598E"/>
<path d="M68.9964 38.7429H66.4649V41.2811H63.9329V38.7429H61.4016V36.2056H63.9329V33.668H66.4649V36.2056H68.9964V38.7429ZM59.7591 38.7429H57.2278V41.2811H54.6963V38.7429H52.1648V36.2056H54.6963V33.668H57.2278V36.2056H59.7591V38.7429Z" fill="white"/>
<path d="M47.0954 42.9074C45.208 46.2625 41.6217 48.53 37.5057 48.53C33.4149 48.53 29.8489 46.291 27.952 42.9714C26.999 41.3057 26.4986 39.4186 26.5005 37.4984C26.5005 31.406 31.4279 26.467 37.5057 26.467C41.5701 26.467 45.1174 28.6781 47.0237 31.9638L56.6428 26.4114C52.8195 19.7957 45.6814 15.3448 37.5057 15.3448C25.2996 15.3448 15.405 25.2635 15.405 37.4984C15.405 41.5123 16.4703 45.2764 18.3321 48.5232C22.1458 55.1739 29.3042 59.6522 37.5057 59.6522C45.7223 59.6522 52.8919 55.1559 56.7001 48.4856L47.0954 42.9074Z" fill="white"/>
</svg>
