<svg width="75" height="75" viewBox="0 0 75 75" fill="none" xmlns="http://www.w3.org/2000/svg">
<mask id="mask0_1_178" style="mask-type:luminance" maskUnits="userSpaceOnUse" x="7" y="0" width="61" height="75">
<path d="M67.5969 34.608L47.4083 54.8037L67.5969 74.9995H44.5274L24.3316 54.8037L44.5274 34.608H67.5969ZM44.5274 6.10352e-05L7.03125 37.4962L18.5696 49.0345L67.5969 6.10352e-05H44.5274Z" fill="white"/>
</mask>
<g mask="url(#mask0_1_178)">
<path d="M24.3389 54.8037L35.87 66.3421L67.5969 34.608H44.5274L24.3389 54.8037Z" fill="#39CEFD"/>
</g>
<mask id="mask1_1_178" style="mask-type:luminance" maskUnits="userSpaceOnUse" x="7" y="0" width="61" height="75">
<path d="M67.5969 34.608L47.4083 54.8037L67.5969 74.9995H44.5274L24.3316 54.8037L44.5274 34.608H67.5969ZM44.5274 6.10352e-05L7.03125 37.4962L18.5696 49.0345L67.5969 6.10352e-05H44.5274Z" fill="white"/>
</mask>
<g mask="url(#mask1_1_178)">
<path d="M44.5274 6.10352e-05H67.5969L18.5696 49.0345L7.03125 37.4962L44.5274 6.10352e-05Z" fill="#39CEFD"/>
</g>
<mask id="mask2_1_178" style="mask-type:luminance" maskUnits="userSpaceOnUse" x="7" y="0" width="61" height="75">
<path d="M67.5969 34.608L47.4083 54.8037L67.5969 74.9995H44.5274L24.3316 54.8037L44.5274 34.608H67.5969ZM44.5274 6.10352e-05L7.03125 37.4962L18.5696 49.0345L67.5969 6.10352e-05H44.5274Z" fill="white"/>
</mask>
<g mask="url(#mask2_1_178)">
<path d="M35.8699 66.3421L44.5273 74.9923H67.5968L47.4082 54.8037L35.8699 66.3421Z" fill="#03569B"/>
</g>
<mask id="mask3_1_178" style="mask-type:luminance" maskUnits="userSpaceOnUse" x="7" y="0" width="61" height="75">
<path d="M67.5969 34.608L47.4083 54.8037L67.5969 74.9995H44.5274L24.3316 54.8037L44.5274 34.608H67.5969ZM44.5274 6.10352e-05L7.03125 37.4962L18.5696 49.0345L67.5969 6.10352e-05H44.5274Z" fill="white"/>
</mask>
<g mask="url(#mask3_1_178)">
<path d="M52.9825 60.414L47.4082 54.8037L35.8699 66.3421L52.9825 60.414Z" fill="url(#paint0_linear_1_178)"/>
</g>
<mask id="mask4_1_178" style="mask-type:luminance" maskUnits="userSpaceOnUse" x="7" y="0" width="61" height="75">
<path d="M67.5969 34.608L47.4083 54.8037L67.5969 74.9995H44.5274L24.3316 54.8037L44.5274 34.608H67.5969ZM44.5274 6.10352e-05L7.03125 37.4962L18.5696 49.0345L67.5969 6.10352e-05H44.5274Z" fill="white"/>
</mask>
<g mask="url(#mask4_1_178)">
<path d="M24.3374 54.7997L35.8761 43.261L47.4154 54.7997L35.8761 66.3385L24.3374 54.7997Z" fill="#16B9FD"/>
</g>
<path d="M67.5969 34.608L47.4083 54.8037L67.5969 74.9995H44.5274L24.3316 54.8037L44.5274 34.608H67.5969ZM44.5274 6.10352e-05L7.03125 37.4962L18.5696 49.0345L67.5969 6.10352e-05H44.5274Z" fill="url(#paint1_radial_1_178)"/>
<defs>
<linearGradient id="paint0_linear_1_178" x1="39.2372" y1="68.5688" x2="47.8306" y2="59.9753" gradientUnits="userSpaceOnUse">
<stop stop-color="#1A237E" stop-opacity="0.4"/>
<stop offset="1" stop-color="#1A237E" stop-opacity="0"/>
</linearGradient>
<radialGradient id="paint1_radial_1_178" cx="0" cy="0" r="1" gradientUnits="userSpaceOnUse" gradientTransform="translate(8.73274 5.1118) scale(91.7526 91.7526)">
<stop stop-color="white" stop-opacity="0.1"/>
<stop offset="1" stop-color="white" stop-opacity="0"/>
</radialGradient>
</defs>
</svg>
