<svg width="75" height="75" viewBox="0 0 75 75" fill="none" xmlns="http://www.w3.org/2000/svg">
<path fill-rule="evenodd" clip-rule="evenodd" d="M30.6711 39.7829C30.6711 39.7829 28.7068 40.9259 32.0704 41.312C36.1465 41.7774 38.2285 41.7105 42.7189 40.861C42.7189 40.861 43.9011 41.6012 45.5513 42.2416C35.4823 46.5562 22.7634 41.992 30.6711 39.7829ZM29.4402 34.1526C29.4402 34.1526 27.2366 35.7836 30.6032 36.1318C34.9575 36.5814 38.3945 36.6181 44.3456 35.473C44.3456 35.473 45.1673 36.3071 46.4605 36.7628C34.2881 40.323 20.7313 37.0431 29.4402 34.1526Z" fill="#3174B9"/>
<path fill-rule="evenodd" clip-rule="evenodd" d="M39.8119 24.6006C42.2941 27.4578 39.1613 30.0274 39.1613 30.0274C39.1613 30.0274 45.461 26.776 42.5675 22.7029C39.8661 18.9063 37.7939 17.0201 49.0106 10.5156C49.0106 10.5156 31.4033 14.9113 39.8119 24.6006Z" fill="#CA3132"/>
<path fill-rule="evenodd" clip-rule="evenodd" d="M53.1285 43.9478C53.1285 43.9478 54.5825 45.1466 51.5269 46.0737C45.7166 47.8336 27.3392 48.3643 22.2345 46.1437C20.4008 45.345 23.8412 44.2379 24.9236 44.0041C26.0524 43.7601 26.6967 43.8044 26.6967 43.8044C24.656 42.3675 13.5067 46.6266 21.0343 47.8485C41.5607 51.1767 58.4521 46.3502 53.1285 43.9478ZM31.6162 28.3184C31.6162 28.3184 22.2694 30.539 28.3068 31.3462C30.8568 31.6871 35.9363 31.6086 40.6716 31.2114C44.5403 30.8867 48.4236 30.1921 48.4236 30.1921C48.4236 30.1921 47.0605 30.7771 46.0728 31.4503C36.5797 33.9474 18.2437 32.7844 23.5229 30.2318C27.9864 28.0726 31.6162 28.3184 31.6162 28.3184ZM48.3847 37.6903C58.034 32.6773 53.5726 27.8589 50.4578 28.5082C49.6962 28.6673 49.3545 28.8047 49.3545 28.8047C49.3545 28.8047 49.6386 28.3602 50.1788 28.169C56.3398 26.0039 61.0772 34.5566 48.1923 37.9437C48.1919 37.9437 48.3404 37.8098 48.3847 37.6903Z" fill="#3174B9"/>
<path fill-rule="evenodd" clip-rule="evenodd" d="M42.5676 0.00970459C42.5676 0.00970459 47.9104 5.35589 37.4987 13.5742C29.149 20.1692 35.5951 23.9283 37.4962 28.2249C32.6214 23.8276 29.0458 19.9558 31.4443 16.3533C34.9658 11.0651 44.7234 8.50063 42.5676 0.00970459Z" fill="#CA3132"/>
<path fill-rule="evenodd" clip-rule="evenodd" d="M32.5654 51.2787C41.8259 51.8708 56.0496 50.9497 56.3871 46.5669C56.3871 46.5669 55.7394 48.2282 48.7328 49.5461C40.8276 51.0342 31.076 50.861 25.2942 49.9066C25.2942 49.9066 26.479 50.887 32.5654 51.2787Z" fill="#3174B9"/>
<path fill-rule="evenodd" clip-rule="evenodd" d="M55.9592 59.1382H55.6776V58.9803H56.4375V59.1382H56.1559V59.9266H55.9592V59.1382ZM57.4755 59.1774H57.4721L57.1922 59.9262H57.0638L56.7856 59.1774H56.7822V59.9262H56.5953V58.9799H56.8697L57.1273 59.6493L57.385 58.9799H57.6568V59.9262H57.4759L57.4755 59.1774ZM31.0479 68.0229C30.1746 68.7798 29.2513 69.2055 28.4224 69.2055C27.2414 69.2055 26.6006 68.496 26.6006 67.3608C26.6006 66.1316 27.2866 65.2323 30.0325 65.2323H31.0475L31.0479 68.0229ZM33.4584 70.7423V62.3239C33.4584 60.1724 32.2314 58.7525 29.2735 58.7525C27.5477 58.7525 26.0349 59.1787 24.8049 59.7218L25.159 61.2129C26.1279 60.8571 27.3805 60.5273 28.6101 60.5273C30.3141 60.5273 31.0475 61.2129 31.0475 62.6323V63.6968H30.1959C26.0567 63.6968 24.1888 65.3027 24.1888 67.717C24.1888 69.7973 25.4197 70.9799 27.7367 70.9799C29.2261 70.9799 30.3388 70.3651 31.3777 69.4654L31.5667 70.7423H33.4584ZM41.5035 70.7423H38.4978L34.8787 58.9667H37.5042L39.7504 66.2029L40.2504 68.377C41.3836 65.2323 42.1878 62.0397 42.5901 58.9667H45.1431C44.4596 62.844 43.2284 67.1009 41.5035 70.7423ZM53.0385 68.0229C52.1626 68.7798 51.2393 69.2055 50.4121 69.2055C49.2311 69.2055 48.5912 68.496 48.5912 67.3608C48.5912 66.1316 49.2776 65.2323 52.0218 65.2323H53.0385V68.0229ZM55.4498 70.7423V62.3239C55.4498 60.1724 54.219 58.7525 51.2641 58.7525C49.5366 58.7525 48.0242 59.1787 46.7942 59.7218L47.1483 61.2129C48.1172 60.8571 49.3724 60.5273 50.6024 60.5273C52.3038 60.5273 53.038 61.2129 53.038 62.6323V63.6968H52.1865C48.0468 63.6968 46.1803 65.3027 46.1803 67.717C46.1803 69.7973 47.4086 70.9799 49.726 70.9799C51.2167 70.9799 52.3277 70.3651 53.3691 69.4654L53.5589 70.7423H55.4498ZM21.5458 72.7432C20.8589 73.7471 19.748 74.5419 18.5333 74.9903L17.343 73.5884C18.2684 73.1135 19.0611 72.3469 19.4301 71.6335C19.748 70.9978 19.8807 70.1804 19.8807 68.2238V54.7784H22.4426V68.0383C22.4426 70.6553 22.2336 71.7129 21.5458 72.7432Z" fill="#CA3132"/>
</svg>
