<svg width="250" height="242" viewBox="0 0 242 242" fill="none" xmlns="http://www.w3.org/2000/svg">
    <path fill-rule="evenodd" clip-rule="evenodd" d="
M121 242C187.274 242 242 187.274 242 121C242 54.7258 187.274 0 121 0C54.7258 0 0 54.7258 0 121C0 187.274 54.7258 242 121 242Z
M23.55 121C23.55 94.1624 44.2107 72.4065 69.697 72.4065H172.303C197.789 72.4065 218.45 94.1624 218.45 121C218.45 147.838 197.789 169.594 172.303 169.594H69.697C44.2107 169.594 23.55 147.838 23.55 121Z
M55.5 104.877C57.1794 102.462 60.6071 101.579 63.1555 102.904L92.5355 118.176C94.2755 119.08 95.156 120.78 95.005 122.536C95.1652 124.3 94.2847 126.01 92.5374 126.919L63.1576 142.19C60.609 143.515 57.1813 142.632 55.5019 140.217C53.8223 137.803 54.5269 134.772 57.0755 133.447L78.0434 122.548L57.0736 111.647C54.525 110.323 53.8204 107.291 55.5 104.877Z
M143.077 122.547C143.077 119.554 145.381 117.128 148.223 117.128H181.72C184.563 117.128 186.867 119.554 186.867 122.547C186.867 125.54 184.563 127.966 181.72 127.966H148.223C145.381 127.966 143.077 125.54 143.077 122.547Z
" fill="#04C9D7"/>
</svg>