<svg width="674" height="250" viewBox="0 0 674 250" fill="none" xmlns="http://www.w3.org/2000/svg">
<path d="M154.22 71.5319H59.0778C30.9291 71.5319 8.11005 95.5606 8.11005 125.202C8.11005 154.843 30.9291 178.871 59.0778 178.871H154.22C182.368 178.871 205.187 154.843 205.187 125.202C205.187 95.5606 182.368 71.5319 154.22 71.5319Z" fill="#002930"/>
<path fill-rule="evenodd" clip-rule="evenodd" d="M114.725 242.129C178.086 242.129 229.45 188.042 229.45 121.322C229.45 54.6025 178.086 0.515259 114.725 0.515259C51.3642 0.515259 0 54.6025 0 121.322C0 188.042 51.3642 242.129 114.725 242.129ZM12.1534 125.312C12.1534 98.4747 32.8141 76.7188 58.3004 76.7188H154.211C179.697 76.7188 200.358 98.4747 200.358 125.312C200.358 152.15 179.697 173.906 154.211 173.906H58.3004C32.8141 173.906 12.1534 152.15 12.1534 125.312ZM44.5975 109.189C46.2769 106.775 49.7046 105.891 52.253 107.216L81.633 122.488C83.373 123.392 84.2535 125.092 84.1025 126.848C84.2627 128.612 83.3822 130.322 81.6349 131.231L52.2551 146.503C49.7065 147.827 46.2788 146.944 44.5994 144.53C42.9198 142.115 43.6244 139.084 46.173 137.759L67.1409 126.86L46.1711 115.96C43.6225 114.635 42.9179 111.604 44.5975 109.189ZM126.133 126.859C126.133 123.866 128.437 121.44 131.279 121.44H164.776C167.619 121.44 169.923 123.866 169.923 126.859C169.923 129.852 167.619 132.278 164.776 132.278H131.279C128.437 132.278 126.133 129.852 126.133 126.859Z" fill="#04C9D7"/>
<path d="M312.274 58.8642C316.155 58.8642 319.113 57.9397 321.146 56.0908C323.271 54.1444 324.333 51.2252 324.333 47.3325C324.333 43.6347 323.225 40.8126 321.007 38.8663C318.882 36.8226 315.74 35.801 311.581 35.801C310.102 35.801 308.855 35.8495 307.838 35.9468C306.914 35.9468 305.943 36.0441 304.927 36.2387V58.8642H312.274ZM305.065 105.721C304.049 106.013 302.432 106.305 300.214 106.596C298.088 106.888 295.962 107.034 293.837 107.034C291.711 107.034 289.817 106.84 288.153 106.45C286.582 106.159 285.242 105.575 284.133 104.699C283.024 103.823 282.192 102.607 281.638 101.05C281.083 99.4926 280.806 97.4491 280.806 94.9189V26.1669C280.806 24.1233 281.315 22.5663 282.331 21.4958C283.44 20.328 284.919 19.4035 286.767 18.7223C289.909 17.5547 293.467 16.7274 297.441 16.2409C301.507 15.657 305.574 15.3651 309.64 15.3651C322.393 15.3651 332.142 18.2357 338.888 23.9773C345.635 29.7188 349.008 37.5038 349.008 47.3325C349.008 52.101 348.268 56.4314 346.79 60.324C345.403 64.1191 343.278 67.4278 340.413 70.25C337.641 72.9746 334.083 75.1156 329.739 76.6726C325.488 78.1324 320.545 78.8622 314.908 78.8622H305.065V105.721ZM385.474 87.3285C386.49 87.5231 387.736 87.7178 389.215 87.9124C390.694 88.0097 392.08 88.0584 393.374 88.0584C396.516 88.0584 399.381 87.5718 401.968 86.5986C404.649 85.6255 406.913 84.1171 408.761 82.0735C410.702 80.0298 412.18 77.4025 413.197 74.1911C414.306 70.8825 414.861 66.9413 414.861 62.3674C414.861 53.6092 412.92 47.0406 409.038 42.6616C405.157 38.185 399.982 35.9468 393.512 35.9468C392.219 35.9468 390.879 35.9955 389.492 36.0928C388.199 36.1901 386.86 36.3361 385.474 36.5307V87.3285ZM393.235 108.64C391.664 108.64 389.862 108.591 387.829 108.494C385.797 108.397 383.672 108.202 381.454 107.91C379.328 107.618 377.156 107.229 374.938 106.742C372.813 106.353 370.826 105.769 368.978 104.991C363.895 102.947 361.353 99.3953 361.353 94.335V26.1669C361.353 24.1233 361.862 22.5663 362.878 21.4958C363.987 20.328 365.466 19.4035 367.314 18.7223C371.288 17.3601 375.493 16.4842 379.929 16.0949C384.365 15.6083 388.337 15.3651 391.849 15.3651C399.057 15.3651 405.573 16.2895 411.395 18.1384C417.31 19.9874 422.346 22.8582 426.505 26.7508C430.756 30.546 434.037 35.3631 436.347 41.2018C438.658 47.0406 439.813 53.9498 439.813 61.9297C439.813 69.7147 438.704 76.5267 436.486 82.3654C434.268 88.107 431.08 92.9726 426.921 96.9626C422.855 100.855 417.956 103.774 412.227 105.721C406.497 107.667 400.166 108.64 393.235 108.64ZM485.145 58.8642C489.026 58.8642 491.983 57.9397 494.016 56.0908C496.142 54.1444 497.205 51.2252 497.205 47.3325C497.205 43.6347 496.096 40.8126 493.878 38.8663C491.752 36.8226 488.61 35.801 484.451 35.801C482.973 35.801 481.725 35.8495 480.709 35.9468C479.784 35.9468 478.814 36.0441 477.798 36.2387V58.8642H485.145ZM477.936 105.721C476.92 106.013 475.302 106.305 473.084 106.596C470.959 106.888 468.833 107.034 466.708 107.034C464.582 107.034 462.687 106.84 461.024 106.45C459.453 106.159 458.113 105.575 457.004 104.699C455.895 103.823 455.063 102.607 454.509 101.05C453.954 99.4926 453.677 97.4491 453.677 94.9189V26.1669C453.677 24.1233 454.185 22.5663 455.202 21.4958C456.311 20.328 457.789 19.4035 459.638 18.7223C462.78 17.5547 466.338 16.7274 470.312 16.2409C474.378 15.657 478.444 15.3651 482.511 15.3651C495.264 15.3651 505.012 18.2357 511.759 23.9773C518.505 29.7188 521.878 37.5038 521.878 47.3325C521.878 52.101 521.139 56.4314 519.66 60.324C518.274 64.1191 516.149 67.4278 513.284 70.25C510.511 72.9746 506.953 75.1156 502.61 76.6726C498.36 78.1324 493.416 78.8622 487.778 78.8622H477.936V105.721Z" fill="#002930"/>
<path d="M292.208 137.064C293.225 136.869 294.842 136.626 297.06 136.334C299.278 135.945 301.404 135.75 303.437 135.75C305.563 135.75 307.411 135.945 308.982 136.334C310.645 136.626 312.032 137.21 313.141 138.086C314.25 138.962 315.081 140.178 315.634 141.735C316.189 143.292 316.466 145.336 316.466 147.866V201.874C316.466 210.535 314.111 217.055 309.398 221.435C304.685 225.716 297.753 227.857 288.604 227.857C283.799 227.857 279.917 227.079 276.96 225.522C274.834 224.451 273.263 222.992 272.247 221.143C271.322 219.294 270.86 217.201 270.86 214.866C270.86 212.919 271.091 211.216 271.553 209.757C272.108 208.297 272.755 207.129 273.494 206.253C275.25 206.643 276.729 206.935 277.93 207.129C279.224 207.226 280.61 207.275 282.089 207.275C285.693 207.275 288.281 206.351 289.852 204.502C291.423 202.555 292.208 199.733 292.208 196.035V137.064ZM332.285 155.602C333.209 155.31 334.642 155.018 336.583 154.726C338.616 154.435 340.695 154.289 342.821 154.289C344.854 154.289 346.656 154.435 348.227 154.726C349.89 155.018 351.277 155.602 352.386 156.478C353.495 157.354 354.326 158.57 354.881 160.127C355.528 161.587 355.851 163.533 355.851 165.966V197.349C355.851 201.339 356.775 204.21 358.622 205.961C360.471 207.616 363.151 208.443 366.662 208.443C368.788 208.443 370.498 208.248 371.791 207.859C373.178 207.47 374.24 207.081 374.98 206.691V155.602C375.904 155.31 377.336 155.018 379.277 154.726C381.31 154.435 383.39 154.289 385.515 154.289C387.548 154.289 389.351 154.435 390.922 154.726C392.585 155.018 393.971 155.602 395.08 156.478C396.189 157.354 397.021 158.57 397.576 160.127C398.222 161.587 398.546 163.533 398.546 165.966V210.341C398.546 215.206 396.605 218.856 392.724 221.289C389.489 223.43 385.608 225.035 381.079 226.106C376.643 227.273 371.791 227.857 366.524 227.857C361.533 227.857 356.914 227.273 352.663 226.106C348.504 224.938 344.9 223.138 341.85 220.705C338.801 218.272 336.444 215.158 334.78 211.362C333.117 207.47 332.285 202.799 332.285 197.349V155.602ZM455.662 180.564C455.662 177.547 454.831 175.357 453.167 173.995C451.596 172.535 449.424 171.805 446.652 171.805C444.803 171.805 442.955 172.049 441.107 172.535C439.351 173.022 437.826 173.752 436.532 174.725V225.376C435.608 225.668 434.129 225.96 432.096 226.252C430.155 226.544 428.122 226.69 425.997 226.69C423.964 226.69 422.115 226.544 420.452 226.252C418.881 225.96 417.542 225.376 416.433 224.5C415.324 223.624 414.446 222.456 413.799 220.997C413.245 219.44 412.968 217.445 412.968 215.012V171.221C412.968 168.594 413.476 166.453 414.492 164.798C415.601 163.144 417.08 161.636 418.927 160.273C422.069 157.938 425.997 156.04 430.71 154.581C435.516 153.121 440.829 152.391 446.652 152.391C457.095 152.391 465.135 154.824 470.772 159.689C476.41 164.458 479.228 171.124 479.228 179.688V225.376C478.304 225.668 476.826 225.96 474.792 226.252C472.852 226.544 470.818 226.69 468.693 226.69C466.66 226.69 464.811 226.544 463.148 226.252C461.577 225.96 460.237 225.376 459.128 224.5C458.019 223.624 457.141 222.456 456.494 220.997C455.939 219.44 455.662 217.445 455.662 215.012V180.564ZM493.229 134.874C493.229 131.176 494.385 128.063 496.695 125.532C499.098 123.002 502.24 121.737 506.121 121.737C510.003 121.737 513.099 123.002 515.409 125.532C517.812 128.063 519.013 131.176 519.013 134.874C519.013 138.572 517.812 141.686 515.409 144.217C513.099 146.747 510.003 148.012 506.121 148.012C502.24 148.012 499.098 146.747 496.695 144.217C494.385 141.686 493.229 138.572 493.229 134.874ZM517.904 225.376C516.888 225.57 515.363 225.814 513.33 226.106C511.389 226.495 509.402 226.69 507.369 226.69C505.336 226.69 503.488 226.544 501.824 226.252C500.253 225.96 498.913 225.376 497.804 224.5C496.695 223.624 495.817 222.456 495.17 220.997C494.616 219.44 494.338 217.445 494.338 215.012V155.602C495.355 155.408 496.834 155.164 498.774 154.872C500.807 154.483 502.841 154.289 504.874 154.289C506.907 154.289 508.709 154.435 510.28 154.726C511.944 155.018 513.33 155.602 514.439 156.478C515.548 157.354 516.38 158.57 516.934 160.127C517.581 161.587 517.904 163.533 517.904 165.966V225.376ZM602.634 190.052C602.634 196.084 601.756 201.485 600 206.253C598.244 210.924 595.749 214.866 592.514 218.077C589.372 221.289 585.583 223.721 581.147 225.376C576.711 227.03 571.767 227.857 566.315 227.857C560.862 227.857 555.918 226.982 551.482 225.23C547.046 223.478 543.211 220.997 539.976 217.785C536.834 214.476 534.386 210.487 532.631 205.815C530.875 201.144 529.997 195.889 529.997 190.052C529.997 184.31 530.875 179.104 532.631 174.433C534.386 169.762 536.834 165.82 539.976 162.609C543.211 159.3 547.046 156.77 551.482 155.018C555.918 153.267 560.862 152.391 566.315 152.391C571.767 152.391 576.711 153.315 581.147 155.164C585.583 156.916 589.372 159.446 592.514 162.755C595.749 165.966 598.244 169.908 600 174.579C601.756 179.25 602.634 184.408 602.634 190.052ZM554.116 190.052C554.116 195.987 555.178 200.56 557.304 203.772C559.522 206.886 562.572 208.443 566.453 208.443C570.335 208.443 573.292 206.837 575.325 203.626C577.451 200.414 578.513 195.889 578.513 190.052C578.513 184.213 577.451 179.737 575.325 176.622C573.2 173.411 570.196 171.805 566.315 171.805C562.433 171.805 559.43 173.411 557.304 176.622C555.178 179.737 554.116 184.213 554.116 190.052ZM637.696 225.376C636.772 225.668 635.294 225.96 633.26 226.252C631.32 226.544 629.287 226.69 627.161 226.69C625.128 226.69 623.28 226.544 621.616 226.252C620.045 225.96 618.705 225.376 617.596 224.5C616.487 223.624 615.609 222.456 614.962 220.997C614.408 219.44 614.13 217.445 614.13 215.012V171.221C614.13 168.983 614.5 167.085 615.239 165.528C616.071 163.874 617.226 162.414 618.705 161.149C620.184 159.884 621.986 158.765 624.111 157.792C626.329 156.721 628.686 155.797 631.181 155.018C633.676 154.24 636.264 153.656 638.944 153.267C641.624 152.78 644.304 152.537 646.984 152.537C651.42 152.537 654.932 153.461 657.52 155.31C660.107 157.062 661.401 159.981 661.401 164.069C661.401 165.431 661.216 166.793 660.847 168.156C660.477 169.421 660.015 170.589 659.46 171.659C657.52 171.659 655.533 171.757 653.5 171.951C651.466 172.146 649.479 172.438 647.539 172.827C645.598 173.216 643.75 173.654 641.994 174.141C640.33 174.53 638.898 175.017 637.696 175.601V225.376Z" fill="#04C9D7"/>
</svg>
