<svg width="34" height="34" viewBox="0 0 34 34" fill="none" xmlns="http://www.w3.org/2000/svg">
<path fill-rule="evenodd" clip-rule="evenodd" d="M32.06 16.53C32.06 25.107 25.107 32.06 16.53 32.06C7.95302 32.06 1 25.107 1 16.53C1 7.95302 7.95302 1 16.53 1C25.107 1 32.06 7.95302 32.06 16.53ZM22.093 11.2368C22.093 8.27394 19.5918 5.85312 16.5305 5.85312C13.4692 5.85312 10.9679 8.27394 10.9679 11.2368C10.9679 14.1996 13.4692 16.6205 16.5305 16.6205C19.5918 16.6205 22.093 14.1996 22.093 11.2368Z" stroke="black" stroke-width="2"/>
<path d="M23.6249 29.4294V25.8562C23.6249 23.6471 21.834 21.8562 19.6249 21.8562H13.4252C11.216 21.8562 9.42517 23.6471 9.42517 25.8562V29.4294" stroke="black" stroke-width="2" stroke-linecap="round"/>
</svg>
