<svg width="30" height="30" viewBox="0 0 30 30" fill="none" xmlns="http://www.w3.org/2000/svg">
<path fill-rule="evenodd" clip-rule="evenodd" d="M28.9322 14.9173C28.9322 22.6575 22.6575 28.9322 14.9173 28.9322C7.17711 28.9322 0.902435 22.6575 0.902435 14.9173C0.902435 7.17711 7.17711 0.902435 14.9173 0.902435C22.6575 0.902435 28.9322 7.17711 28.9322 14.9173ZM19.9376 10.1405C19.9376 7.46672 17.6804 5.28208 14.9177 5.28208C12.1551 5.28208 9.89785 7.46672 9.89785 10.1405C9.89785 12.8143 12.1551 14.9989 14.9177 14.9989C17.6804 14.9989 19.9376 12.8143 19.9376 10.1405Z" stroke="#00B533" stroke-width="1.80488"/>
<path d="M21.32 26.5582V23.3336C21.32 21.34 19.7038 19.7239 17.7102 19.7239H12.1154C10.1218 19.7239 8.50562 21.34 8.50562 23.3337V26.5582" stroke="#00B533" stroke-width="1.80488" stroke-linecap="round"/>
</svg>
