<svg width="75" height="75" viewBox="0 0 75 75" fill="none" xmlns="http://www.w3.org/2000/svg">
<g clip-path="url(#clip0_1_206)">
<path d="M37.0611 0.000609484C34.0046 0.0147302 31.0858 0.273912 28.5175 0.725772C20.9517 2.05477 19.578 4.83648 19.578 9.96641V16.7415H37.457V18.9999H19.578H12.8682C7.67208 18.9999 3.12221 22.1052 1.69907 28.0126C0.0574884 34.7839 -0.0153245 39.0092 1.69907 46.0795C2.96997 51.3423 6.00505 55.0922 11.2012 55.0922H17.3484V46.9704C17.3484 41.1029 22.4543 35.9272 28.5175 35.9272H46.3756C51.3467 35.9272 55.3151 31.8576 55.3151 26.8938V9.96641C55.3151 5.14879 51.2276 1.52981 46.3756 0.725772C43.3043 0.217429 40.1175 -0.0135114 37.0611 0.000609484ZM27.3923 5.44969C29.239 5.44969 30.7472 6.9737 30.7472 8.84759C30.7472 10.7148 29.239 12.2248 27.3923 12.2248C25.5389 12.2248 24.0373 10.7148 24.0373 8.84759C24.0373 6.9737 25.5389 5.44969 27.3923 5.44969Z" fill="url(#paint0_linear_1_206)"/>
<path d="M57.5383 18.9999V26.8938C57.5383 33.0138 52.3199 38.1649 46.3691 38.1649H28.511C23.6194 38.1649 19.5715 42.3276 19.5715 47.1983V64.1257C19.5715 68.9433 23.7849 71.777 28.511 73.1592C34.1705 74.8138 39.5976 75.1128 46.3691 73.1592C50.8702 71.8634 55.3086 69.2556 55.3086 64.1257V57.3506H37.4505V55.0922H55.3086H64.2481C69.4442 55.0922 71.3805 51.4885 73.1876 46.0795C75.0542 40.511 74.9748 35.156 73.1876 28.0126C71.9034 22.8694 69.4508 18.9999 64.2481 18.9999H57.5383ZM47.4944 61.8673C49.3478 61.8673 50.8493 63.3773 50.8493 65.2445C50.8493 67.1184 49.3478 68.6424 47.4944 68.6424C45.6476 68.6424 44.1395 67.1184 44.1395 65.2445C44.1395 63.3773 45.6476 61.8673 47.4944 61.8673Z" fill="url(#paint1_linear_1_206)"/>
</g>
<defs>
<linearGradient id="paint0_linear_1_206" x1="0.440429" y1="-1.92378e-07" x2="41.4685" y2="35.1624" gradientUnits="userSpaceOnUse">
<stop stop-color="#5A9FD4"/>
<stop offset="1" stop-color="#306998"/>
</linearGradient>
<linearGradient id="paint1_linear_1_206" x1="47.0647" y1="64.6749" x2="32.3861" y2="43.9877" gradientUnits="userSpaceOnUse">
<stop stop-color="#FFD43B"/>
<stop offset="1" stop-color="#FFE873"/>
</linearGradient>
<clipPath id="clip0_1_206">
<rect width="75" height="75" fill="white"/>
</clipPath>
</defs>
</svg>
